<svg xmlns="http://www.w3.org/2000/svg" version="1.1" xmlns:xlink="http://www.w3.org/1999/xlink" xmlns:svgjs="http://svgjs.dev/svgjs" width="80" height="80"><svg width="80" height="80" viewBox="0 0 80 80" fill="none" xmlns="http://www.w3.org/2000/svg">
<rect width="80" height="80" rx="23" fill="black"></rect>
<path d="M69.213 37.9262C69.4186 37.5896 69.7456 37.3648 70.1937 37.2516C70.6419 37.1384 71.225 37.1028 71.943 37.1449C72.6841 37.1883 73.2706 37.2924 73.7025 37.4571C74.1344 37.6218 74.4212 37.8826 74.563 38.2395C74.728 38.5978 74.8139 38.9166 74.8207 39.1958C74.8521 39.4533 74.8522 39.8484 74.8211 40.3811L73.6064 61.121C73.5752 61.6537 73.5283 62.0577 73.4657 62.3329C73.4276 62.5863 73.3064 62.8697 73.1021 63.1831C72.7181 63.788 71.7155 64.0431 70.0943 63.9481C68.4962 63.8545 67.6378 63.2349 67.519 62.0892C66.4811 63.1439 65.0937 63.6204 63.3567 63.5186C61.2723 63.3966 59.426 62.3821 57.818 60.4752C56.2113 58.5452 55.4785 56.3758 55.6196 53.9672C55.762 51.5354 56.7437 49.4548 58.5647 47.7255C60.4089 45.9976 62.3616 45.194 64.4229 45.3147C66.1367 45.4151 67.4345 46.0721 68.3163 47.2857L68.7435 39.9903C68.7747 39.4576 68.8094 39.0645 68.8475 38.8111C68.91 38.5359 69.0319 38.2409 69.213 37.9262ZM62.4803 56.4606C63.0458 57.1212 63.7571 57.4765 64.614 57.5267C65.4709 57.5769 66.1956 57.3056 66.7881 56.7129C67.4037 56.1214 67.7332 55.4552 67.7766 54.7141C67.8214 53.9498 67.5848 53.2271 67.067 52.5461C66.5723 51.8664 65.8617 51.4994 64.9353 51.4452C64.0089 51.3909 63.2488 51.6717 62.655 52.2877C62.0625 52.8804 61.7439 53.559 61.6991 54.3232C61.6543 55.0875 61.9147 55.8 62.4803 56.4606Z" fill="white"></path>
<path d="M35.3095 52.7775C35.4723 49.9983 36.5793 47.7624 38.6306 46.0699C40.6818 44.3773 42.9581 43.6043 45.4594 43.7508C47.9607 43.8973 50.1196 44.9301 51.9361 46.8491C53.754 48.7451 54.5815 51.0826 54.4187 53.8618C54.3061 55.7841 53.7078 57.4688 52.6238 58.9159C51.5411 60.3398 50.2607 61.3687 48.7827 62.0026C47.3293 62.6147 45.8383 62.8759 44.3097 62.7864C42.7811 62.6969 41.3206 62.2395 39.928 61.4143C38.5369 60.5659 37.3861 59.383 36.4756 57.8656C35.5897 56.3264 35.201 54.6303 35.3095 52.7775ZM42.4238 55.7041C43.1323 56.3033 43.8688 56.6253 44.633 56.6701C45.3973 56.7149 46.1786 56.4701 46.9768 55.9359C47.775 55.4016 48.2073 54.5671 48.2738 53.4322C48.3402 52.2974 48.0308 51.431 47.3453 50.8331C46.6599 50.2352 45.9003 49.9119 45.0666 49.863C44.2328 49.8142 43.44 50.0583 42.6881 50.5952C41.9362 51.1322 41.5271 51.9681 41.4606 53.1029C41.3955 54.2146 41.7165 55.0817 42.4238 55.7041Z" fill="white"></path>
<path d="M15.48 65.7692L16.6683 45.4808C16.6995 44.9481 16.7341 44.5551 16.7722 44.3017C16.8334 44.0496 16.9546 43.7662 17.1357 43.4515C17.4966 42.8452 18.2908 42.5779 19.5183 42.6498C20.7458 42.7217 21.5584 42.932 21.9563 43.2807C22.3788 43.6075 22.6071 44.0741 22.6413 44.6803C23.5919 43.5275 25.0052 43.006 26.8812 43.1159C28.7803 43.2271 30.523 44.2239 32.1092 46.1063C33.6955 47.9886 34.4194 50.111 34.2811 52.4733C34.1427 54.8357 33.176 56.859 31.3808 58.5433C29.6089 60.229 27.7733 61.0162 25.8742 60.905C23.975 60.7938 22.6282 60.1804 21.8337 59.0648L21.4227 66.0823C21.3915 66.615 21.3453 67.0074 21.284 67.2594C21.2459 67.5129 21.1248 67.7962 20.9205 68.1096C20.738 68.4475 20.4343 68.6738 20.0092 68.7883C19.5842 68.9029 19.0127 68.9391 18.2948 68.8971C17.5768 68.855 17.0019 68.7516 16.57 68.5869C16.1612 68.4235 15.8737 68.1743 15.7074 67.8392C15.5643 67.5054 15.477 67.2098 15.4456 66.9524C15.4374 66.6962 15.4488 66.3018 15.48 65.7692ZM23.3169 49.8093C22.7476 50.4035 22.4413 51.0711 22.3979 51.8122C22.3545 52.5533 22.5808 53.2522 23.0769 53.9087C23.5974 54.5434 24.2746 54.8852 25.1084 54.934C25.9653 54.9842 26.7009 54.7252 27.3152 54.1569C27.9526 53.59 28.2937 52.9244 28.3385 52.1601C28.3832 51.3959 28.1453 50.6964 27.6247 50.0616C27.1055 49.4038 26.3943 49.0484 25.491 48.9955C24.611 48.9439 23.8863 49.2152 23.3169 49.8093Z" fill="white"></path>
<path d="M55.6525 11.5746C55.8085 11.2124 56.1003 10.9435 56.5279 10.7681C56.9556 10.5926 57.5278 10.4749 58.2445 10.4149C58.9843 10.3531 59.5796 10.3731 60.0305 10.4751C60.4814 10.577 60.8022 10.7946 60.9931 11.1279C61.207 11.4592 61.3372 11.7626 61.3835 12.0381C61.451 12.2885 61.507 12.6796 61.5515 13.2114L63.2834 33.9146C63.3279 34.4463 63.3386 34.8528 63.3156 35.1341C63.3137 35.3904 63.2339 35.688 63.076 36.0272C62.7814 36.6804 61.825 37.0747 60.2066 37.2101C58.6114 37.3435 57.674 36.8516 57.3942 35.7342C56.5161 36.9252 55.21 37.5932 53.4761 37.7382C51.3954 37.9123 49.4242 37.1692 47.5625 35.5091C45.6989 33.8258 44.6665 31.7819 44.4654 29.3775C44.2623 26.95 44.9398 24.7515 46.4978 22.782C48.0789 20.8105 49.8983 19.7387 51.9559 19.5666C53.6667 19.4235 55.0444 19.8902 56.089 20.9669L55.4798 13.6844C55.4353 13.1526 55.414 12.7586 55.4159 12.5024C55.4389 12.2211 55.5178 11.9119 55.6525 11.5746ZM51.6099 30.8752C52.2632 31.4491 53.0175 31.7003 53.8729 31.6287C54.7283 31.5571 55.4074 31.1861 55.91 30.5154C56.4358 29.8429 56.6677 29.1367 56.6058 28.3968C56.542 27.6339 56.2056 26.952 55.5966 26.3511C55.0107 25.7482 54.2553 25.4855 53.3306 25.5628C52.4058 25.6402 51.6931 26.0258 51.1924 26.7195C50.6897 27.3901 50.4703 28.1069 50.5341 28.8699C50.598 29.6328 50.9565 30.3012 51.6099 30.8752Z" fill="white"></path>
<path d="M24.1918 31.0736C23.9597 28.2993 24.7393 25.9293 26.5304 23.9636C28.3216 21.9978 30.4656 20.9105 32.9624 20.7016C35.4593 20.4928 37.7426 21.2097 39.8123 22.8525C41.8802 24.4721 43.0301 26.6691 43.2622 29.4434C43.4227 31.3623 43.0688 33.1147 42.2004 34.7006C41.33 36.2634 40.2081 37.4631 38.8347 38.2997C37.4824 39.1112 36.0434 39.5808 34.5175 39.7085C32.9917 39.8361 31.4811 39.59 29.9858 38.9701C28.4886 38.327 27.182 37.3189 26.0661 35.9455C24.9713 34.5471 24.3465 32.9232 24.1918 31.0736ZM31.6485 32.9642C32.4348 33.4572 33.2093 33.6717 33.9723 33.6079C34.7352 33.5441 35.474 33.1913 36.1885 32.5495C36.9031 31.9077 37.213 31.0203 37.1183 29.8875C37.0235 28.7547 36.5945 27.9408 35.8314 27.4459C35.0683 26.951 34.2706 26.7384 33.4383 26.808C32.6061 26.8776 31.8557 27.2314 31.1874 27.8693C30.5191 28.5073 30.2323 29.3926 30.327 30.5255C30.4199 31.6352 30.8604 32.4481 31.6485 32.9642Z" fill="white"></path>
<path d="M6.39927 46.7401L4.70506 26.4877C4.66057 25.956 4.63926 25.562 4.6411 25.3058C4.66606 25.0476 4.74592 24.7499 4.88068 24.4127C5.15213 23.7614 5.90051 23.3845 7.12583 23.282C8.35114 23.1795 9.18541 23.2727 9.62863 23.5615C10.093 23.8253 10.3851 24.2549 10.5047 24.8502C11.2827 23.5745 12.608 22.8583 14.4806 22.7016C16.3764 22.5431 18.2426 23.2833 20.0792 24.9222C21.9158 26.5612 22.9327 28.5598 23.13 30.918C23.3273 33.2761 22.6565 35.4159 21.1178 37.3372C19.6021 39.2566 17.8964 40.2956 16.0006 40.4542C14.1049 40.6128 12.6848 40.1962 11.7404 39.2042L12.3264 46.2093C12.3709 46.7411 12.3807 47.136 12.3557 47.3942C12.3539 47.6505 12.274 47.9481 12.1161 48.2873C11.9833 48.6476 11.7146 48.9145 11.3101 49.0881C10.9055 49.2616 10.3449 49.3783 9.62823 49.4383C8.91154 49.4982 8.32776 49.4772 7.87689 49.3753C7.44914 49.2714 7.12925 49.0653 6.91722 48.7571C6.72831 48.447 6.6001 48.1667 6.53259 47.9163C6.48819 47.6639 6.44375 47.2718 6.39927 46.7401ZM11.8993 29.832C11.4197 30.5007 11.2109 31.205 11.2728 31.9448C11.3347 32.6846 11.6576 33.3444 12.2416 33.9241C12.8467 34.4788 13.5654 34.7213 14.3977 34.6517C15.2531 34.5801 15.9447 34.2196 16.4724 33.5702C17.0232 32.9188 17.2667 32.2116 17.2029 31.4487C17.139 30.6858 16.8046 30.027 16.1994 29.4723C15.5923 28.8945 14.838 28.6433 13.9363 28.7187C13.0578 28.7922 12.3788 29.1633 11.8993 29.832Z" fill="white"></path>
</svg><style>@media (prefers-color-scheme: light) { :root { filter: none; } }
@media (prefers-color-scheme: dark) { :root { filter: none; } }
</style></svg>