<svg width="36" height="42" viewBox="0 0 36 42" fill="none" xmlns="http://www.w3.org/2000/svg">
<rect x="2" y="12" width="32" height="22" fill="white"/>
<rect x="4" y="8" width="28" height="28" fill="white"/>
<rect x="6" y="6" width="24" height="32" fill="white"/>
<rect x="8" y="4" width="20" height="36" fill="white"/>
<rect x="10" y="2" width="16" height="36" fill="white"/>
<rect x="12" y="40" width="2" height="2" fill="#14181F"/>
<rect x="14" y="40" width="2" height="2" fill="#14181F"/>
<rect x="16" y="40" width="2" height="2" fill="#14181F"/>
<rect x="18" y="40" width="2" height="2" fill="#14181F"/>
<rect x="20" y="40" width="2" height="2" fill="#14181F"/>
<rect x="22" y="40" width="2" height="2" fill="#14181F"/>
<rect x="24" y="38" width="2" height="2" fill="#14181F"/>
<rect x="28" y="36" width="2" height="2" fill="#14181F"/>
<rect x="30" y="34" width="2" height="2" fill="#14181F"/>
<rect x="32" y="32" width="2" height="2" fill="#14181F"/>
<rect x="32" y="30" width="2" height="2" fill="#14181F"/>
<rect x="34" y="28" width="2" height="2" fill="#14181F"/>
<rect x="34" y="26" width="2" height="2" fill="#14181F"/>
<rect x="34" y="24" width="2" height="2" fill="#14181F"/>
<rect x="34" y="22" width="2" height="2" fill="#14181F"/>
<rect x="34" y="20" width="2" height="2" fill="#14181F"/>
<rect x="34" y="18" width="2" height="2" fill="#14181F"/>
<rect x="34" y="16" width="2" height="2" fill="#14181F"/>
<rect x="32" y="14" width="2" height="2" fill="#14181F"/>
<rect x="32" y="12" width="2" height="2" fill="#14181F"/>
<rect x="30" y="10" width="2" height="2" fill="#14181F"/>
<rect x="30" y="8" width="2" height="2" fill="#14181F"/>
<rect x="28" y="6" width="2" height="2" fill="#14181F"/>
<rect x="26" y="4" width="2" height="2" fill="#14181F"/>
<rect x="24" y="2" width="2" height="2" fill="#14181F"/>
<rect x="22" y="2" width="2" height="2" fill="#14181F"/>
<rect x="20" width="2" height="2" fill="#14181F"/>
<rect x="18" width="2" height="2" fill="#14181F"/>
<rect x="16" width="2" height="2" fill="#14181F"/>
<rect x="14" width="2" height="2" fill="#14181F"/>
<rect x="12" y="2" width="2" height="2" fill="#14181F"/>
<rect x="10" y="2" width="2" height="2" fill="#14181F"/>
<rect x="8" y="4" width="2" height="2" fill="#14181F"/>
<rect x="6" y="6" width="2" height="2" fill="#14181F"/>
<rect x="4" y="8" width="2" height="2" fill="#14181F"/>
<rect x="4" y="10" width="2" height="2" fill="#14181F"/>
<rect x="2" y="12" width="2" height="2" fill="#14181F"/>
<rect x="2" y="14" width="2" height="2" fill="#14181F"/>
<rect y="16" width="2" height="2" fill="#14181F"/>
<rect y="18" width="2" height="2" fill="#14181F"/>
<rect y="20" width="2" height="2" fill="#14181F"/>
<rect y="22" width="2" height="2" fill="#14181F"/>
<rect y="24" width="2" height="2" fill="#14181F"/>
<rect y="26" width="2" height="2" fill="#14181F"/>
<rect y="28" width="2" height="2" fill="#14181F"/>
<rect x="2" y="30" width="2" height="2" fill="#14181F"/>
<rect x="2" y="32" width="2" height="2" fill="#14181F"/>
<rect x="4" y="34" width="2" height="2" fill="#14181F"/>
<rect x="6" y="36" width="2" height="2" fill="#14181F"/>
<rect x="8" y="38" width="2" height="2" fill="#14181F"/>
<rect x="10" y="38" width="2" height="2" fill="#14181F"/>
<rect x="26" y="38" width="2" height="2" fill="#14181F"/>
<rect x="18" y="14" width="6" height="6" fill="#5C5E6D"/>
<rect x="20" y="12" width="2" height="10" fill="#5C5E6D"/>
<rect x="16" y="16" width="10" height="2" fill="#5C5E6D"/>
<rect x="24" y="26" width="2" height="2" fill="#5C5E6D"/>
<rect x="22" y="28" width="2" height="2" fill="#5C5E6D"/>
<rect x="26" y="28" width="2" height="2" fill="#5C5E6D"/>
<rect x="28" y="8" width="2" height="4" fill="#5C5E6D"/>
<rect x="26" y="6" width="2" height="4" fill="#5C5E6D"/>
<rect x="8" y="32" width="4" height="4" fill="#5C5E6D"/>
<rect x="2" y="16" width="2" height="6" fill="#5C5E6D"/>
<rect x="4" y="12" width="2" height="8" fill="#5C5E6D"/>
<rect x="14" y="2" width="2" height="2" fill="#B6BDC8"/>
<rect x="12" y="4" width="2" height="2" fill="#B6BDC8"/>
<rect x="10" y="4" width="2" height="2" fill="#B6BDC8"/>
<rect x="10" y="6" width="2" height="2" fill="#B6BDC8"/>
<rect x="10" y="8" width="2" height="2" fill="#B6BDC8"/>
<rect x="8" y="8" width="2" height="2" fill="#B6BDC8"/>
<rect x="6" y="8" width="2" height="2" fill="#B6BDC8"/>
<rect x="6" y="10" width="2" height="2" fill="#B6BDC8"/>
<rect x="6" y="12" width="2" height="2" fill="#B6BDC8"/>
<rect x="8" y="12" width="2" height="2" fill="#B6BDC8"/>
<rect x="8" y="14" width="2" height="2" fill="#B6BDC8"/>
<rect x="6" y="14" width="2" height="2" fill="#B6BDC8"/>
<rect x="6" y="16" width="2" height="2" fill="#B6BDC8"/>
<rect x="6" y="18" width="2" height="2" fill="#B6BDC8"/>
<rect x="6" y="20" width="2" height="2" fill="#B6BDC8"/>
<rect x="6" y="22" width="2" height="2" fill="#B6BDC8"/>
<rect x="6" y="24" width="2" height="2" fill="#B6BDC8"/>
<rect x="6" y="26" width="2" height="2" fill="#B6BDC8"/>
<rect x="6" y="28" width="2" height="2" fill="#B6BDC8"/>
<rect x="6" y="30" width="2" height="2" fill="#B6BDC8"/>
<rect x="6" y="32" width="2" height="2" fill="#B6BDC8"/>
<rect x="12" y="36" width="2" height="2" fill="#B6BDC8"/>
<rect x="14" y="36" width="2" height="2" fill="#B6BDC8"/>
<rect x="16" y="36" width="2" height="2" fill="#B6BDC8"/>
<rect x="18" y="36" width="2" height="2" fill="#B6BDC8"/>
<rect x="20" y="36" width="2" height="2" fill="#B6BDC8"/>
<rect x="22" y="36" width="2" height="2" fill="#B6BDC8"/>
<rect x="24" y="36" width="2" height="2" fill="#B6BDC8"/>
<rect x="26" y="36" width="2" height="2" fill="#B6BDC8"/>
<rect x="28" y="34" width="2" height="2" fill="#B6BDC8"/>
<rect x="30" y="32" width="2" height="2" fill="#B6BDC8"/>
<rect x="30" y="30" width="2" height="2" fill="#B6BDC8"/>
<rect x="32" y="28" width="2" height="2" fill="#B6BDC8"/>
<rect x="28" y="32" width="2" height="2" fill="#B6BDC8"/>
<rect x="26" y="34" width="2" height="2" fill="#B6BDC8"/>
<rect x="24" y="34" width="2" height="2" fill="#B6BDC8"/>
<rect x="22" y="34" width="2" height="2" fill="#B6BDC8"/>
<rect x="20" y="34" width="2" height="2" fill="#B6BDC8"/>
<rect x="18" y="34" width="2" height="2" fill="#B6BDC8"/>
<rect x="16" y="34" width="2" height="2" fill="#B6BDC8"/>
<rect x="14" y="34" width="2" height="2" fill="#B6BDC8"/>
<rect x="12" y="34" width="2" height="2" fill="#B6BDC8"/>
<rect x="14" y="32" width="2" height="2" fill="#B6BDC8"/>
<rect x="12" y="32" width="2" height="2" fill="#B6BDC8"/>
<rect x="14" y="30" width="2" height="2" fill="#B6BDC8"/>
<rect x="12" y="30" width="2" height="2" fill="#B6BDC8"/>
<rect x="10" y="30" width="2" height="2" fill="#B6BDC8"/>
<rect x="8" y="30" width="2" height="2" fill="#B6BDC8"/>
<rect x="8" y="28" width="2" height="2" fill="#B6BDC8"/>
<rect x="8" y="26" width="2" height="2" fill="#B6BDC8"/>
<rect x="8" y="24" width="2" height="2" fill="#B6BDC8"/>
<rect x="8" y="22" width="2" height="2" fill="#B6BDC8"/>
<rect x="8" y="20" width="2" height="2" fill="#B6BDC8"/>
<rect x="8" y="18" width="2" height="2" fill="#B6BDC8"/>
<rect x="8" y="16" width="2" height="2" fill="#B6BDC8"/>
<rect x="10" y="24" width="2" height="2" fill="#B6BDC8"/>
<rect x="10" y="26" width="2" height="2" fill="#B6BDC8"/>
<rect x="10" y="28" width="2" height="2" fill="#B6BDC8"/>
<rect x="12" y="28" width="2" height="2" fill="#B6BDC8"/>
<rect x="16" y="32" width="2" height="2" fill="#B6BDC8"/>
<rect x="18" y="32" width="2" height="2" fill="#B6BDC8"/>
<rect x="18" y="38" width="2" height="2" fill="#B6BDC8"/>
<rect x="18" y="38" width="2" height="2" fill="#B6BDC8"/>
<rect x="6" y="30" width="2" height="4" fill="#5C5E6D"/>
<rect x="12" y="34" width="2" height="2" fill="#5C5E6D"/>
<rect x="20" y="38" width="2" height="2" fill="#B6BDC8"/>
<rect x="22" y="38" width="2" height="2" fill="#B6BDC8"/>
<rect x="4" y="28" width="2" height="2" fill="#B6BDC8"/>
<rect x="2" y="28" width="2" height="2" fill="#B6BDC8"/>
<rect x="4" y="30" width="2" height="2" fill="#B6BDC8"/>
<rect x="4" y="32" width="2" height="2" fill="#B6BDC8"/>
<rect x="6" y="34" width="2" height="2" fill="#B6BDC8"/>
<rect x="8" y="36" width="2" height="2" fill="#B6BDC8"/>
<rect x="10" y="36" width="2" height="2" fill="#B6BDC8"/>
<rect x="12" y="38" width="2" height="2" fill="#B6BDC8"/>
<rect x="14" y="38" width="2" height="2" fill="#B6BDC8"/>
<rect x="16" y="38" width="2" height="2" fill="#B6BDC8"/>
<rect x="2" y="26" width="2" height="2" fill="#B6BDC8"/>
<rect x="4" y="26" width="2" height="2" fill="#B6BDC8"/>
<rect x="4" y="24" width="2" height="2" fill="#B6BDC8"/>
<rect x="4" y="22" width="2" height="2" fill="#B6BDC8"/>
<rect x="4" y="20" width="2" height="2" fill="#B6BDC8"/>
<rect x="2" y="22" width="2" height="2" fill="#B6BDC8"/>
<rect x="2" y="24" width="2" height="2" fill="#B6BDC8"/>
<rect x="8" y="10" width="2" height="2" fill="#B6BDC8"/>
<rect x="8" y="6" width="2" height="2" fill="#B6BDC8"/>
</svg>
